<svg version="1.0" xmlns="http://www.w3.org/2000/svg"
 width="1024.000000pt" height="1024.000000pt" viewBox="0 0 1024.000000 1024.000000"
 preserveAspectRatio="xMidYMid meet">

<g transform="translate(0.000000,1024.000000) scale(0.100000,-0.100000)"
fill="#659131" stroke="none">
<path d="M2257 6783 c-2 -467 -2 -1524 -1 -2351 l2 -1503 281 -2 281 -2 0 968
0 967 424 0 424 0 98 -152 c124 -193 521 -799 589 -898 28 -41 94 -142 147
-225 52 -82 170 -264 262 -402 l168 -253 276 0 c153 0 301 -3 331 -7 48 -5 54
-4 48 11 -9 22 -188 300 -607 941 -360 549 -668 1028 -676 1049 -3 8 22 18 69
29 86 21 267 97 352 149 241 148 443 399 533 664 52 153 67 256 66 474 -1 170
-4 221 -22 300 -76 341 -237 602 -491 793 -163 123 -379 220 -582 261 -151 31
-309 36 -1136 36 l-833 0 -3 -847z m1847 263 c221 -41 417 -165 530 -335 218
-327 156 -834 -132 -1074 -73 -62 -234 -142 -337 -167 -130 -33 -272 -40 -822
-40 l-523 0 0 819 0 819 598 -3 c501 -3 611 -6 686 -19z"/>
<path d="M4790 7627 c3 -3 46 -32 95 -65 181 -121 322 -262 417 -419 l43 -71
567 -6 c685 -7 718 -12 921 -118 97 -51 232 -179 286 -271 190 -322 123 -804
-142 -1031 -108 -92 -223 -147 -392 -187 -85 -21 -121 -22 -665 -26 l-575 -5
0 -284 0 -284 396 0 395 0 286 -432 c157 -238 368 -559 468 -713 100 -154 257
-393 349 -532 l166 -252 330 -3 c182 -2 331 -2 333 -2 4 2 -150 240 -676 1044
-275 420 -358 547 -489 753 -73 114 -133 209 -133 212 0 3 7 5 14 5 32 0 186
55 283 100 133 63 229 130 331 232 221 222 345 471 381 768 37 293 -12 597
-135 843 -72 143 -130 223 -244 337 -165 164 -333 266 -555 335 -223 70 -185
68 -1170 72 -489 2 -887 2 -885 0z"/>
</g>
</svg>